<svg xmlns="http://www.w3.org/2000/svg" viewBox="0 0 750 500"><g id="freepik--Floor--inject-46"><polygon points="46.15 448.04 128.36 447.8 210.57 447.71 375 447.54 539.42 447.71 621.64 447.8 703.85 448.04 621.64 448.29 539.42 448.38 375 448.54 210.57 448.37 128.36 448.29 46.15 448.04" style="fill:#263238"></polygon></g><g id="freepik--Device--inject-46"><rect x="280.01" y="432.67" width="189.97" height="15.87" style="fill:#c7c7c7"></rect><polygon points="447.36 432.68 302.63 432.68 306.31 405.13 306.49 403.83 306.83 401.24 307 399.94 307.36 397.36 307.4 396.96 307.52 396.06 307.88 393.47 308.05 392.18 310.62 372.93 439.38 372.93 441.81 391.08 441.93 391.96 442.33 394.97 442.44 395.84 442.59 396.96 442.85 398.85 442.96 399.73 443.36 402.75 443.48 403.61 447.36 432.68" style="fill:#dbdbdb"></polygon><polygon points="442.59 396.96 308.05 392.18 310.62 372.93 439.38 372.93 442.59 396.96" style="fill:#c7c7c7"></polygon><rect x="131.27" y="51.46" width="487.45" height="331.46" style="fill:#263238"></rect><rect x="131.27" y="334.02" width="487.45" height="48.89" style="fill:#dbdbdb"></rect><path d="M382.93,355.18a8.08,8.08,0,1,1-8.07-8.07A8.07,8.07,0,0,1,382.93,355.18Z" style="fill:#37474f"></path><rect x="153.77" y="73.01" width="442.46" height="238.02" style="fill:#fff"></rect><rect x="153.77" y="73.01" width="442.46" height="238.02" style="fill:#fff"></rect><rect x="153.77" y="73.01" width="442.46" height="10.77" style="fill:#455a64"></rect><path d="M161.68,78.4a1.82,1.82,0,1,1-1.82-1.83A1.83,1.83,0,0,1,161.68,78.4Z" style="fill:#c7c7c7"></path><path d="M169.12,78.4a1.83,1.83,0,1,1-1.82-1.83A1.83,1.83,0,0,1,169.12,78.4Z" style="fill:#fff"></path><path d="M176.55,78.4a1.82,1.82,0,1,1-1.82-1.83A1.82,1.82,0,0,1,176.55,78.4Z" style="fill:#E27163"></path><rect x="379.58" y="94.52" width="195.05" height="93.61" style="fill:#ebebeb"></rect><rect x="588.38" y="83.78" width="7.85" height="227.25" style="fill:#dbdbdb"></rect><path d="M592.3,177.09h0a2,2,0,0,1-2-2V87.38a2,2,0,0,1,2-2h0a2,2,0,0,1,2,2v87.68A2,2,0,0,1,592.3,177.09Z" style="fill:#a6a6a6"></path><rect x="153.77" y="83.78" width="104.76" height="227.25" style="fill:#E27163"></rect><rect x="170.43" y="94.52" width="81.28" height="11.13" style="fill:#fff"></rect><path d="M166.15,100.09a2.79,2.79,0,1,1-2.78-2.79A2.78,2.78,0,0,1,166.15,100.09Z" style="fill:#fff"></path><rect x="170.43" y="113.59" width="81.28" height="11.13" style="opacity:0.1"></rect><path d="M163.37,122.19a3,3,0,1,1,3-3A3,3,0,0,1,163.37,122.19Zm0-5.57a2.54,2.54,0,1,0,2.53,2.53A2.54,2.54,0,0,0,163.37,116.62Z" style="opacity:0.1"></path><path d="M165.05,119.15a1.69,1.69,0,1,1-1.68-1.68A1.69,1.69,0,0,1,165.05,119.15Z" style="opacity:0.1"></path><rect x="170.43" y="132.65" width="81.28" height="11.13" style="fill:#fff"></rect><path d="M166.15,138.22a2.79,2.79,0,1,1-2.78-2.79A2.79,2.79,0,0,1,166.15,138.22Z" style="fill:#fff"></path><rect x="170.43" y="151.72" width="81.28" height="11.13" style="opacity:0.1"></rect><path d="M163.37,160.32a3,3,0,1,1,3-3A3,3,0,0,1,163.37,160.32Zm0-5.57a2.54,2.54,0,1,0,2.53,2.54A2.54,2.54,0,0,0,163.37,154.75Z" style="opacity:0.1"></path><path d="M165.05,157.29a1.69,1.69,0,1,1-1.68-1.69A1.69,1.69,0,0,1,165.05,157.29Z" style="opacity:0.1"></path><rect x="170.43" y="170.78" width="81.28" height="11.13" style="fill:#fff"></rect><path d="M166.15,176.35a2.79,2.79,0,1,1-2.78-2.78A2.79,2.79,0,0,1,166.15,176.35Z" style="fill:#fff"></path><rect x="170.43" y="189.85" width="81.28" height="11.13" style="fill:#fff"></rect><path d="M166.15,195.42a2.79,2.79,0,1,1-2.78-2.79A2.78,2.78,0,0,1,166.15,195.42Z" style="fill:#fff"></path><rect x="170.43" y="208.92" width="81.28" height="11.13" style="opacity:0.1"></rect><path d="M163.37,217.52a3,3,0,1,1,3-3A3,3,0,0,1,163.37,217.52Zm0-5.57a2.54,2.54,0,1,0,2.53,2.53A2.54,2.54,0,0,0,163.37,212Z" style="opacity:0.1"></path><path d="M165.05,214.48a1.69,1.69,0,1,1-1.68-1.68A1.68,1.68,0,0,1,165.05,214.48Z" style="opacity:0.1"></path><rect x="170.43" y="227.98" width="81.28" height="11.13" style="fill:#fff"></rect><path d="M166.15,233.55a2.79,2.79,0,1,1-2.78-2.79A2.78,2.78,0,0,1,166.15,233.55Z" style="fill:#fff"></path><rect x="170.43" y="247.05" width="81.28" height="11.13" style="opacity:0.1"></rect><path d="M163.37,255.65a3,3,0,1,1,3-3A3,3,0,0,1,163.37,255.65Zm0-5.57a2.54,2.54,0,1,0,2.53,2.53A2.54,2.54,0,0,0,163.37,250.08Z" style="opacity:0.1"></path><path d="M165.05,252.61a1.69,1.69,0,1,1-1.68-1.68A1.69,1.69,0,0,1,165.05,252.61Z" style="opacity:0.1"></path><rect x="170.43" y="266.11" width="81.28" height="11.13" style="opacity:0.1"></rect><path d="M163.37,274.71a3,3,0,1,1,3-3A3,3,0,0,1,163.37,274.71Zm0-5.57a2.54,2.54,0,1,0,2.53,2.54A2.54,2.54,0,0,0,163.37,269.14Z" style="opacity:0.1"></path><path d="M165.05,271.68a1.69,1.69,0,1,1-1.68-1.68A1.68,1.68,0,0,1,165.05,271.68Z" style="opacity:0.1"></path><path d="M366.53,188.63H362v-1h3.5v-.4h1Zm-8.5,0h-4v-1h4Zm-8,0h-4v-1h4Zm-8,0h-4v-1h4Zm-8,0h-4v-1h4Zm-8,0h-4v-1h4Zm-8,0h-4v-1h4Zm-8,0h-4v-1h4Zm-8,0h-4v-1h4Zm-8,0h-4v-1h4Zm-8,0h-4v-1h4Zm-8,0h-4v-1h4ZM271.69,187h-1v-4h1Zm94.84-3.74h-1v-4h1ZM271.69,179h-1v-4h1Zm94.84-3.74h-1v-4h1ZM271.69,171h-1v-4h1Zm94.84-3.74h-1v-4h1ZM271.69,163h-1v-4h1Zm94.84-3.74h-1v-4h1ZM271.69,155h-1v-4h1Zm94.84-3.74h-1v-4h1ZM271.69,147h-1v-4h1Zm94.84-3.74h-1v-4h1ZM271.69,139h-1v-4h1Zm94.84-3.74h-1v-4h1ZM271.69,131h-1v-4h1Zm94.84-3.74h-1v-4h1ZM271.69,123h-1v-4h1Zm94.84-3.74h-1v-4h1ZM271.69,115h-1v-4h1Zm94.84-3.74h-1v-4h1ZM271.69,107h-1v-4h1Zm94.84-3.74h-1v-4h1ZM271.69,99h-1V95h1Zm94.84-3.74h-1V95h-2.79V94h3.79ZM358.74,95h-4V94h4Zm-8,0h-4V94h4Zm-8,0h-4V94h4Zm-8,0h-4V94h4Zm-8,0h-4V94h4Zm-8,0h-4V94h4Zm-8,0h-4V94h4Zm-8,0h-4V94h4Zm-8,0h-4V94h4Zm-8,0h-4V94h4Zm-8,0h-4V94h4Z" style="fill:#ebebeb"></path><polygon points="480.29 205.1 479.29 205.1 479.29 202.6 481.79 202.6 481.79 203.6 480.29 203.6 480.29 205.1" style="fill:#ebebeb"></polygon><path d="M568.69,203.6h-4v-1h4Zm-7.9,0h-3.95v-1h3.95Zm-7.9,0h-3.95v-1h3.95Zm-7.9,0h-4v-1h4Zm-7.9,0h-4v-1h4Zm-7.9,0h-4v-1h4Zm-7.9,0h-3.95v-1h3.95Zm-7.9,0h-3.95v-1h3.95Zm-7.9,0h-3.95v-1h3.95Zm-7.9,0h-3.95v-1h3.95Zm-7.9,0h-3.95v-1h3.95Z" style="fill:#ebebeb"></path><polygon points="575.14 205.1 574.14 205.1 574.14 203.6 572.64 203.6 572.64 202.6 575.14 202.6 575.14 205.1" style="fill:#ebebeb"></polygon><path d="M575.14,290.81h-1v-3.89h1Zm0-7.79h-1v-3.9h1Zm0-7.79h-1v-3.9h1Zm0-7.8h-1v-3.89h1Zm0-7.79h-1v-3.89h1Zm0-7.79h-1V248h1Zm0-7.79h-1v-3.9h1Zm0-7.79h-1v-3.9h1Zm0-7.79h-1v-3.9h1Zm0-7.8h-1v-3.89h1Zm0-7.79h-1V209h1Z" style="fill:#ebebeb"></path><polygon points="575.14 297.21 572.64 297.21 572.64 296.21 574.14 296.21 574.14 294.71 575.14 294.71 575.14 297.21" style="fill:#ebebeb"></polygon><path d="M568.69,297.21h-4v-1h4Zm-7.9,0h-3.95v-1h3.95Zm-7.9,0h-3.95v-1h3.95Zm-7.9,0h-4v-1h4Zm-7.9,0h-4v-1h4Zm-7.9,0h-4v-1h4Zm-7.9,0h-3.95v-1h3.95Zm-7.9,0h-3.95v-1h3.95Zm-7.9,0h-3.95v-1h3.95Zm-7.9,0h-3.95v-1h3.95Zm-7.9,0h-3.95v-1h3.95Z" style="fill:#ebebeb"></path><polygon points="481.79 297.21 479.29 297.21 479.29 294.71 480.29 294.71 480.29 296.21 481.79 296.21 481.79 297.21" style="fill:#ebebeb"></polygon><path d="M480.29,290.81h-1v-3.89h1Zm0-7.79h-1v-3.9h1Zm0-7.79h-1v-3.9h1Zm0-7.8h-1v-3.89h1Zm0-7.79h-1v-3.89h1Zm0-7.79h-1V248h1Zm0-7.79h-1v-3.9h1Zm0-7.79h-1v-3.9h1Zm0-7.79h-1v-3.9h1Zm0-7.8h-1v-3.89h1Zm0-7.79h-1V209h1Z" style="fill:#ebebeb"></path><rect x="271.19" y="203.1" width="195.05" height="93.61" transform="translate(737.44 499.81) rotate(180)" style="fill:#ebebeb"></rect><polygon points="326.76 288.28 266.98 288.26 267.02 211.52 311.4 211.54 326.79 226.17 326.76 288.28" style="fill:#E27163"></polygon><polygon points="311.4 211.54 326.79 226.17 311.39 226.16 311.4 211.54" style="fill:#E27163"></polygon><polygon points="311.4 211.54 326.79 226.17 311.39 226.16 311.4 211.54" style="opacity:0.1"></polygon><g style="opacity:0.1"><rect x="272.84" y="224.41" width="33.23" height="1.97" transform="translate(578.82 450.91) rotate(-179.98)"></rect><rect x="272.84" y="229.38" width="33.23" height="1.97" transform="translate(578.82 460.86) rotate(-179.98)"></rect><rect x="272.84" y="234.35" width="33.23" height="1.97" transform="translate(578.81 470.8) rotate(-179.98)"></rect><rect x="272.84" y="239.33" width="48.69" height="1.97" transform="translate(594.26 480.76) rotate(-179.98)"></rect><rect x="272.83" y="244.3" width="48.69" height="1.97" transform="translate(594.26 490.71) rotate(-179.98)"></rect><rect x="272.83" y="249.28" width="48.69" height="1.97" transform="translate(594.25 500.65) rotate(-179.98)"></rect><rect x="272.83" y="254.25" width="48.69" height="1.97" transform="translate(594.24 510.6) rotate(-179.98)"></rect><rect x="272.83" y="259.22" width="48.69" height="1.97" transform="translate(594.24 520.55) rotate(-179.98)"></rect><rect x="272.82" y="264.2" width="48.69" height="1.97" transform="translate(594.23 530.49) rotate(-179.98)"></rect><rect x="272.82" y="269.17" width="48.69" height="1.97" transform="translate(594.22 540.44) rotate(-179.98)"></rect><rect x="272.82" y="274.14" width="48.69" height="1.97" transform="translate(594.22 550.39) rotate(-179.98)"></rect><rect x="272.82" y="279.12" width="48.69" height="1.97" transform="translate(594.21 560.33) rotate(-179.98)"></rect></g><polygon points="470.43 288.28 410.65 288.26 410.68 211.52 455.07 211.54 470.45 226.17 470.43 288.28" style="fill:#E27163"></polygon><polygon points="455.07 211.54 470.45 226.17 455.06 226.16 455.07 211.54" style="fill:#E27163"></polygon><polygon points="455.07 211.54 470.45 226.17 455.06 226.16 455.07 211.54" style="opacity:0.1"></polygon><g style="opacity:0.1"><rect x="416.51" y="224.41" width="33.23" height="1.97" transform="translate(866.16 450.97) rotate(-179.98)"></rect><rect x="416.51" y="229.38" width="33.23" height="1.97" transform="translate(866.15 460.92) rotate(-179.98)"></rect><rect x="416.5" y="234.35" width="33.23" height="1.97" transform="translate(866.14 470.86) rotate(-179.98)"></rect><rect x="416.5" y="239.33" width="48.69" height="1.97" transform="translate(881.6 480.82) rotate(-179.98)"></rect><rect x="416.5" y="244.3" width="48.69" height="1.97" transform="translate(881.59 490.77) rotate(-179.98)"></rect><rect x="416.5" y="249.28" width="48.69" height="1.97" transform="translate(881.58 500.71) rotate(-179.98)"></rect><rect x="416.5" y="254.25" width="48.69" height="1.97" transform="translate(881.58 510.66) rotate(-179.98)"></rect><rect x="416.49" y="259.22" width="48.69" height="1.97" transform="translate(881.57 520.61) rotate(-179.98)"></rect><rect x="416.49" y="264.2" width="48.69" height="1.97" transform="translate(881.57 530.55) rotate(-179.98)"></rect><rect x="416.49" y="269.17" width="48.69" height="1.97" transform="translate(881.56 540.5) rotate(-179.98)"></rect><rect x="416.49" y="274.14" width="48.69" height="1.97" transform="translate(881.55 550.45) rotate(-179.98)"></rect><rect x="416.49" y="279.12" width="48.69" height="1.97" transform="translate(881.55 560.39) rotate(-179.98)"></rect></g><polygon points="398.59 288.28 338.82 288.26 338.85 211.52 383.23 211.54 398.62 226.17 398.59 288.28" style="fill:#455a64"></polygon><polygon points="383.23 211.54 398.62 226.17 383.23 226.16 383.23 211.54" style="fill:#37474f"></polygon><rect x="344.68" y="224.41" width="33.23" height="1.97" transform="translate(722.49 450.94) rotate(-179.98)" style="fill:#37474f"></rect><rect x="344.67" y="229.38" width="33.23" height="1.97" transform="translate(722.48 460.89) rotate(-179.98)" style="fill:#37474f"></rect><rect x="344.67" y="234.35" width="33.23" height="1.97" transform="translate(722.48 470.83) rotate(-179.98)" style="fill:#37474f"></rect><rect x="344.67" y="239.33" width="48.69" height="1.97" transform="translate(737.93 480.79) rotate(-179.98)" style="fill:#37474f"></rect><rect x="344.67" y="244.3" width="48.69" height="1.97" transform="translate(737.92 490.74) rotate(-179.98)" style="fill:#37474f"></rect><rect x="344.66" y="249.28" width="48.69" height="1.97" transform="translate(737.92 500.68) rotate(-179.98)" style="fill:#37474f"></rect><rect x="344.66" y="254.25" width="48.69" height="1.97" transform="translate(737.91 510.63) rotate(-179.98)" style="fill:#37474f"></rect><rect x="344.66" y="259.22" width="48.69" height="1.97" transform="translate(737.9 520.58) rotate(-179.98)" style="fill:#37474f"></rect><rect x="344.66" y="264.2" width="48.69" height="1.97" transform="translate(737.9 530.52) rotate(-179.98)" style="fill:#37474f"></rect><rect x="344.66" y="269.17" width="48.69" height="1.97" transform="translate(737.89 540.47) rotate(-179.98)" style="fill:#37474f"></rect><rect x="344.65" y="274.14" width="48.69" height="1.97" transform="translate(737.89 550.42) rotate(-179.98)" style="fill:#37474f"></rect><rect x="344.65" y="279.12" width="48.69" height="1.97" transform="translate(737.88 560.36) rotate(-179.98)" style="fill:#37474f"></rect><rect x="283.82" y="118.54" width="70.14" height="50.84" style="fill:#E27163"></rect><polygon points="308.61 113.27 283.82 113.27 283.82 118.54 310.03 118.54 308.61 113.27" style="fill:#E27163"></polygon><rect x="286.26" y="115.33" width="20.27" height="3.06" style="fill:#fff"></rect><polygon points="353.96 169.38 283.82 169.38 283.31 121.69 353.45 121.69 353.96 169.38" style="fill:#E27163"></polygon><polygon points="353.96 169.38 283.82 169.38 283.31 121.69 353.45 121.69 353.96 169.38" style="fill:#fff;opacity:0.4"></polygon><polygon points="308.04 116.86 283.26 116.86 283.31 121.69 309.52 121.69 308.04 116.86" style="fill:#E27163"></polygon><polygon points="308.04 116.86 283.26 116.86 283.31 121.69 309.52 121.69 308.04 116.86" style="fill:#fff;opacity:0.4"></polygon><rect x="512.61" y="217.64" width="70.14" height="50.84" style="fill:#E27163"></rect><polygon points="537.39 212.37 512.61 212.37 512.61 217.63 538.82 217.63 537.39 212.37" style="fill:#E27163"></polygon><rect x="515.05" y="214.43" width="20.27" height="3.06" style="fill:#fff"></rect><polygon points="582.75 268.48 512.61 268.48 512.1 220.79 582.24 220.79 582.75 268.48" style="fill:#E27163"></polygon><polygon points="582.75 268.48 512.61 268.48 512.1 220.79 582.24 220.79 582.75 268.48" style="fill:#fff;opacity:0.4"></polygon><polygon points="536.83 215.96 512.05 215.96 512.1 220.79 538.31 220.79 536.83 215.96" style="fill:#E27163"></polygon><polygon points="536.83 215.96 512.05 215.96 512.1 220.79 538.31 220.79 536.83 215.96" style="fill:#fff;opacity:0.4"></polygon><rect x="405.65" y="106.97" width="62.7" height="62.7" transform="translate(873.99 276.65) rotate(180)" style="fill:#fff"></rect><rect x="408.72" y="110.04" width="56.56" height="56.56" transform="translate(873.99 276.65) rotate(180)" style="fill:#455a64"></rect><path d="M417.83,123.54a5.34,5.34,0,1,0,4.19-4.19A5.34,5.34,0,0,0,417.83,123.54Z" style="fill:#37474f"></path><polygon points="424.4 151.93 465.28 151.93 444.84 129 424.4 151.93" style="fill:#37474f"></polygon><polygon points="408.71 151.93 442.46 151.93 425.59 137 408.71 151.93" style="fill:#263238"></polygon><rect x="408.72" y="151.93" width="56.56" height="14.68" style="fill:#263238"></rect><rect x="493.96" y="106.97" width="62.7" height="62.7" transform="translate(1050.63 276.65) rotate(180)" style="fill:#fff"></rect><rect x="497.03" y="110.04" width="56.56" height="56.56" transform="translate(1050.63 276.65) rotate(180)" style="fill:#455a64"></rect><path d="M506.14,123.54a5.34,5.34,0,1,0,4.19-4.19A5.34,5.34,0,0,0,506.14,123.54Z" style="fill:#37474f"></path><polygon points="512.72 151.93 553.6 151.93 533.15 129 512.72 151.93" style="fill:#37474f"></polygon><polygon points="497.03 151.93 530.78 151.93 513.91 137 497.03 151.93" style="fill:#263238"></polygon><rect x="497.03" y="151.93" width="56.56" height="14.68" style="fill:#263238"></rect><rect x="393.64" y="116.95" width="62.7" height="62.7" transform="translate(849.98 296.6) rotate(180)" style="fill:#fff"></rect><rect x="396.71" y="120.02" width="56.56" height="56.56" transform="translate(849.98 296.6) rotate(180)" style="fill:#E27163"></rect><path d="M405.82,133.52a5.34,5.34,0,1,0,4.19-4.19A5.35,5.35,0,0,0,405.82,133.52Z" style="opacity:0.1"></path><polygon points="412.39 161.9 453.27 161.9 432.83 138.98 412.39 161.9" style="opacity:0.1"></polygon><polygon points="396.71 161.9 430.46 161.9 413.58 146.98 396.71 161.9" style="fill:#E27163"></polygon><g style="opacity:0.2"><polygon points="396.71 161.9 430.46 161.9 413.58 146.98 396.71 161.9"></polygon></g><rect x="396.71" y="161.9" width="56.56" height="14.68" style="fill:#E27163"></rect><rect x="396.71" y="161.9" width="56.56" height="14.68" style="opacity:0.2"></rect></g><g id="freepik--Character--inject-46"><path d="M378.73,95.93s-9.84-5.69-18.78-.36-13.4,18.8-12.1,30.2-8.11,18.72-9.27,27.15,4.31,12.44,6.09,16.9c2,5.12-6.84,23,14.8,27.57,27.06,5.74,37.77-10.77,35.26-24.64-1.23-6.79-5-11.67-4.77-17.14s4.12-9.76,2.23-16.74-4.58-6.09-5.47-17S388.31,98,378.73,95.93Z" style="fill:#263238"></path><path d="M361.83,95.35a33.62,33.62,0,0,0-13.13,15.21,31.33,31.33,0,0,0-2.49,9.84c-.36,4.44.24,8.61-1.5,12.89-2.77,6.85-8.17,12.51-8.07,20.21a19,19,0,0,0,3.08,10.09c2.28,3.52,5.57,6.32,7.47,10.08.07.16.32,0,.24-.13-1.57-3.34-4.18-5.91-6.33-8.91a19.3,19.3,0,0,1-3.79-12.17c.35-7.3,5.67-12.82,8.24-19.44A23.47,23.47,0,0,0,346.8,124a33,33,0,0,1,1.61-11,35.62,35.62,0,0,1,13.5-17.54S361.89,95.31,361.83,95.35Z" style="fill:#263238"></path><path d="M348.84,178.15s0,0,0,0A0,0,0,0,0,348.84,178.15Z" style="fill:#263238"></path><path d="M394.67,170.79c-.63-3.28-2.28-6.27-2.9-9.54-.75-3.94.32-7.82,1.14-11.66,1.17-5.47,1.15-10.66-1.18-15.88-1.51-3.37-3.36-6.53-4.45-10.07a41.52,41.52,0,0,1-1.86-11.84c0-.09-.14-.09-.14,0a37.69,37.69,0,0,0,3.32,16.91c1.42,3.12,3.21,6.05,4,9.4.95,4,.47,7.89-.3,11.89a45.31,45.31,0,0,0-1.16,8.1,22.7,22.7,0,0,0,1.77,8,28.15,28.15,0,0,1-.51,20.72c0,.11.16.2.21.09A26.74,26.74,0,0,0,394.67,170.79Z" style="fill:#263238"></path><path d="M337.87,151.93c.35-6,4.62-10,7.27-15.2,2-3.9,3.38-8.09,2.83-12.44,0-.08-.14-.06-.14,0,.21,6.3-2.54,12-6.12,17.15-2.38,3.45-4.35,6.78-4.45,11s1.48,7.63,3.77,11.09c1.63,2.47,3.23,4.77,3.89,7.66a30.46,30.46,0,0,1,.24,8.79c0,.15.24.15.25,0,.49-4.5.64-8.87-1.56-13C341.16,161.85,337.51,158,337.87,151.93Z" style="fill:#263238"></path><path d="M395.79,166.54a37.35,37.35,0,0,0-3.35-5.89c-2.24-3.43-2.57-6.19-1.73-10.19a.08.08,0,0,0-.15,0c-1.17,3.29-1.48,6,.42,9.12,2.66,4.31,5.27,8.23,5.74,13.32.83,9-4.42,17.35-12.76,21.76-.12.06,0,.22.1.17,7-3.28,12-9.37,13.12-16.63A21.64,21.64,0,0,0,395.79,166.54Z" style="fill:#263238"></path><path d="M435.45,448c-2.28.76-67.3.57-69.78-1-.93-.59-1.46-10.07-1.77-21.53q-.11-3.72-.16-7.63c-.05-3.07-.09-6.19-.11-9.21-.07-13.58.11-25.54.11-25.54h42.33l0,25.54v9.21l-.22,7.63s24.86,11.21,27.39,13.23S437.72,447.27,435.45,448Z" style="fill:#d3766a"></path><path d="M435.45,448c-2.28.76-67.3.57-69.78-1-.93-.59-1.46-10.07-1.77-21.53q-.11-3.72-.16-7.63c-.05-3.07-.09-6.19-.11-9.21h42.42v9.21l-.22,7.63s24.86,11.21,27.39,13.23S437.72,447.27,435.45,448Z" style="fill:#fff"></path><path d="M435.65,448.11c-1.49.49-29.18.59-49.35.17-4.66-.1-8.93-.23-12.37-.38-4.75-.22-7.93-.48-8.45-.8-1.14-.74-1.69-14.65-2-29.32h42.54l-.22,7.67s25,11.27,27.55,13.3S437.92,447.34,435.65,448.11Z" style="fill:#E27163"></path><path d="M434.71,445.49c-10.95-.3-55.19-.48-66,.06-.09,0-.09.06,0,.07,10.85.53,55.08.35,66,.05C435,445.67,435,445.5,434.71,445.49Z" style="fill:#263238"></path><path d="M407.41,423c-4.31-.82-9.59-.17-12.9,2.89-.12.12.05.3.19.26a60.87,60.87,0,0,1,12.69-2.61A.27.27,0,0,0,407.41,423Z" style="fill:#263238"></path><path d="M410.51,424.91c-4.31-.82-9.58-.18-12.89,2.89-.13.12,0,.3.19.25a60.08,60.08,0,0,1,12.69-2.6A.27.27,0,0,0,410.51,424.91Z" style="fill:#263238"></path><path d="M413.62,426.79c-4.31-.82-9.59-.17-12.89,2.89-.13.12,0,.3.18.26a60.34,60.34,0,0,1,12.69-2.6A.28.28,0,0,0,413.62,426.79Z" style="fill:#263238"></path><path d="M416.73,428.68c-4.31-.82-9.59-.18-12.89,2.89-.13.12,0,.3.18.25a61,61,0,0,1,12.69-2.6A.27.27,0,0,0,416.73,428.68Z" style="fill:#263238"></path><path d="M415.4,413.07c-1.69-2.34-4.85-1.3-6.65.21a23,23,0,0,0-6.67,9.86.11.11,0,0,0,.1.15c0,.33.31.68.67.55,3.57-1.31,7.54-2.27,10.6-4.63C415.24,417.83,417,415.28,415.4,413.07Zm-7.55,7.68c-1.73.68-3.49,1.28-5.21,2a68.4,68.4,0,0,1,4-5.67,23.26,23.26,0,0,1,2.29-2.47c1.29-1.16,6.37-3.63,5.6,1.1C414.13,418.35,409.93,419.93,407.85,420.75Z" style="fill:#263238"></path><path d="M391.12,422c3.55,1.53,7.64,1.46,11.42,1.84a.53.53,0,0,0,.51-.69.12.12,0,0,0,.06-.18,22.92,22.92,0,0,0-8.92-7.88c-2.12-1-5.44-1.23-6.49,1.46S389.05,421.09,391.12,422Zm-1.94-3.08c-1.93-4.39,3.61-3.26,5.15-2.46a26.25,26.25,0,0,1,2.84,1.81c1.89,1.36,3.56,3,5.31,4.49-1.85-.3-3.7-.43-5.56-.66C394.71,421.8,390.25,421.32,389.18,418.9Z" style="fill:#263238"></path><path d="M349.63,202.72s11.44,113.15,11.7,114.58c0,.19.12,2.37.23,5.92.62,19.48,2.14,80.21,2.14,80.21h46.68s-3.05-71.94-4.8-88.72c-2.23-21.41-16.27-112-16.27-112Z" style="fill:#37474f"></path><path d="M366.9,321.29q-2.16-36.78-6.49-73.38c-1.64-13.74-3.61-27.44-5.57-41.15,0-.12-.21-.11-.19,0,3.61,24.39,6.17,49,8.37,73.52s3.74,49.1,4.75,73.7c.57,13.94,1,27.89,1.45,41.83a.26.26,0,0,0,.51,0C369.07,371,368.36,346.11,366.9,321.29Z" style="fill:#263238"></path><path d="M407.43,395.91c-1.22-.16-2.55-.11-3.79-.16-1.4,0-2.8-.06-4.2-.11q-4.06-.15-8.11-.22c-5.45-.08-10.92-.05-16.36.12l-4.5.16c-1.59.06-3.2.2-4.79.2-.12,0-.12.14,0,.14,2.74,0,5.52.24,8.27.34s5.4.14,8.11.18c5.44.08,10.91,0,16.35-.17,1.5-.06,3-.08,4.5-.13.8,0,1.6-.07,2.4-.1s1.42,0,2.13-.07A.09.09,0,0,0,407.43,395.91Z" style="fill:#263238"></path><path d="M349.63,202.72s11.44,113.15,11.7,114.58c0,.19.12,2.37.23,5.92l22-120.5Z" style="fill:#263238"></path><path d="M319.38,446c-2.39-.25-61.53-27.25-63.14-29.71-.61-.92,2.82-9.77,7.27-20.34.95-2.28,1.86-4.68,3-7,1.43-2.94,2.89-5.85,4.34-8.65,6.25-12.15,12-22.11,12-22.11l37.46,17L309.47,397.3,305,406.39l-3.34,6.86s18,20.47,19.49,23.34S321.76,446.25,319.38,446Z" style="fill:#d3766a"></path><path d="M319.38,446c-2.39-.25-61.53-27.25-63.14-29.71-.61-.92,2.82-9.77,7.27-20.34.95-2.28,1.86-4.68,3-7,1.43-2.94,2.89-5.85,4.34-8.65,11.57,5.18,28.24,12.48,38.62,17L305,406.39l-3.34,6.86s18,20.47,19.49,23.34S321.76,446.25,319.38,446Z" style="fill:#fff"></path><path d="M319.52,446.16c-2.39-.25-61.87-27.4-63.49-29.87-.74-1.14,4.5-14,10.32-27.51l38.75,17.55-3.36,6.9s18.12,20.58,19.6,23.48S321.92,446.42,319.52,446.16Z" style="fill:#E27163"></path><path d="M319.76,443.39c-9.86-4.79-50.08-23.2-60.19-27.2-.08,0-.11,0,0,.07,9.67,5,50,23.05,60.14,27.3C319.9,443.65,320,443.49,319.76,443.39Z" style="fill:#263238"></path><path d="M304.15,411.66c-3.59-2.53-8.66-4.11-12.93-2.69-.17.06-.09.29.06.31a61,61,0,0,1,12.63,2.86A.27.27,0,0,0,304.15,411.66Z" style="fill:#263238"></path><path d="M306.21,414.66c-3.59-2.53-8.67-4.12-12.94-2.69-.17.06-.09.29.06.31A60.8,60.8,0,0,1,306,415.14.27.27,0,0,0,306.21,414.66Z" style="fill:#263238"></path><path d="M308.26,417.66c-3.59-2.53-8.66-4.12-12.94-2.69-.16.06-.08.29.06.31A61,61,0,0,1,308,418.14.27.27,0,0,0,308.26,417.66Z" style="fill:#263238"></path><path d="M310.31,420.65c-3.59-2.52-8.66-4.11-12.93-2.68-.17.06-.09.29.06.31a60.31,60.31,0,0,1,12.63,2.86A.28.28,0,0,0,310.31,420.65Z" style="fill:#263238"></path><path d="M315.54,405.89c-.57-2.83-3.88-3.18-6.14-2.55a22.93,22.93,0,0,0-10.15,6.23.11.11,0,0,0,0,.18.53.53,0,0,0,.39.77c3.79.28,7.8,1.05,11.56.16C313.43,410.15,316.08,408.56,315.54,405.89Zm-10,3.88c-1.87-.09-3.72-.28-5.59-.3,2-1.21,3.91-2.5,6-3.51a24.7,24.7,0,0,1,3.1-1.29c1.65-.53,7.31-.68,4.65,3.3C312.21,410.17,307.72,409.88,305.5,409.77Z" style="fill:#263238"></path><path d="M289.75,404c2.6,2.85,6.35,4.48,9.64,6.38a.52.52,0,0,0,.75-.41.12.12,0,0,0,.13-.14A23,23,0,0,0,295.4,399c-1.52-1.8-4.45-3.36-6.52-1.35S288.22,402.32,289.75,404Zm-.5-3.61c.05-4.79,4.64-1.48,5.71-.11a26.15,26.15,0,0,1,1.83,2.82,69.38,69.38,0,0,1,3,6.28c-1.56-1-3.19-1.92-4.79-2.9C293.09,405.31,289.22,403,289.25,400.38Z" style="fill:#263238"></path><path d="M388.93,202.72s-1.76,16.34-13.16,24.66c0,0-21,84.13-24.27,93.78-5.63,16.63-35.89,72.94-35.89,72.94l-46.7-20s35.62-62.75,39.47-67.58c2.55-3.21,21.73-71.42,21.5-73.17-2.81-20.91,7.11-30.69,7.11-30.69Z" style="fill:#37474f"></path><path d="M356.6,208.64a15.58,15.58,0,0,1-5.71,8.2,19.31,19.31,0,0,1-10.37,3.56c-.63,0-.68,1,0,1,7.61,0,15.3-4.82,16.41-12.71C356.94,208.51,356.65,208.47,356.6,208.64Z" style="fill:#263238"></path><path d="M383.07,222.2a42,42,0,0,0-7.86,4.17c-2.61,1.62-5,3.51-7.55,5.26-.1.06,0,.22.09.16,2.65-1.52,5.4-2.84,8-4.41a50.09,50.09,0,0,0,7.42-5A.12.12,0,0,0,383.07,222.2Z" style="fill:#263238"></path><path d="M384.14,206.33c-.41,1.75-.91,3.47-1.37,5.2s-.77,3.28-1.28,4.88a8.4,8.4,0,0,1-2.48,4c-.67.57-1.41,1.07-2.12,1.58-.38.28-.79.55-1.19.83.06-.23.11-.47.16-.7.15-.66.29-1.33.44-2,.31-1.47.62-2.94.91-4.41.58-2.9,1.13-5.83,1.87-8.69a.09.09,0,0,0-.18-.05c-.86,2.82-1.79,5.62-2.56,8.48-.37,1.4-1.8,8.34-1.87,8.83s-.14,1-.18,1.53a5.93,5.93,0,0,0-.07,1.57c0,.13.17.11.23,0h0A6.64,6.64,0,0,0,375,226c.15-.5.29-1,.4-1.5,0-.18.08-.37.11-.55.71-.39,1.38-.91,2-1.35s1.45-.93,2.13-1.45a7.91,7.91,0,0,0,2.69-3.81,29,29,0,0,0,1.05-5c.31-2,.56-4,.93-5.93C384.34,206.27,384.17,206.21,384.14,206.33Z" style="fill:#263238"></path><path d="M315.74,384.67c-1.05-.63-12.1-5.78-14.56-6.91-4.95-2.26-22.06-9.28-23.68-9.87-.53-.19-.57.1-.15.3,2.53,1.23,12.43,5.77,14.89,6.89,4.95,2.26,22.74,9.57,23.43,9.77C315.79,384.88,315.84,384.74,315.74,384.67Z" style="fill:#263238"></path><path d="M340,204.64a38.66,38.66,0,0,0-6.46,20.81A33,33,0,0,0,334,231c.08.46.13.92.24,1.37l.14.68a2.11,2.11,0,0,1,.08.58c-.11.84-.33,1.76-.53,2.64-.85,3.56-1.79,7.11-2.73,10.65-3.8,14.17-7.65,28.32-11.71,42.42l-3,10.56c-.53,1.76-1.05,3.51-1.61,5.25-.28.86-.56,1.75-.89,2.55s-.77,1.61-1.22,2.41c-3.45,6.45-7.19,12.77-10.79,19.15,0,0-18.41,30.93-22.2,38.06-.18.33-.09.54.25.1,3.29-4.29,15.28-25.06,22.76-37.68,3.74-6.32,7.43-12.65,11-19.11.45-.8.85-1.65,1.27-2.49s.65-1.76.94-2.64c.57-1.75,1.11-3.51,1.64-5.27,1.05-3.51,2.09-7,3.09-10.56,3.95-14.14,7.85-28.29,11.42-42.52.89-3.56,1.77-7.12,2.56-10.72.19-.91.4-1.77.51-2.75a2.35,2.35,0,0,0-.11-.78l-.14-.66c-.11-.44-.17-.89-.26-1.34a36.53,36.53,0,0,1-.49-5.43A38.86,38.86,0,0,1,340,204.64Z" style="fill:#263238"></path><path d="M364.62,144.18c3.8,12.38,23.37,44,36.08,46.66,10.22,2.16,38.14-.29,45.53-1.63,2.48-.45-1.88-29.56-4.8-29.56-6.88,0-28.69,7.84-34.58,5.69-2.31-.84-16-12.35-32.41-26.4C368.09,133.5,362.36,136.79,364.62,144.18Z" style="fill:#d3766a"></path><path d="M444.35,189.45c3.41-.24,18.95-2.7,23.12-4.36s15.82-7.28,14.88-10.6-4.49-2-4.49-2,4.55-3.16,3.29-6.42-6.69-.93-6.69-.93,4.43-3.58,2.94-6.74-6.56.09-6.56.09,4.2-3.09,1.89-5.18c-2.79-2.51-9.9,4-14.64,5.54-1.07.33-22.3,5.26-22.3,5.26Z" style="fill:#d3766a"></path><path d="M471.28,158.27c-5.24,4.81-8.36,6-15.25,7.27-.14,0-.13.23,0,.22,6.86-.62,11-1.56,15.49-7.25C471.75,158.23,471.53,158,471.28,158.27Z" style="fill:#263238"></path><path d="M474.87,164.8c-5.88,4.53-9.26,5.86-16.38,7.7a.1.1,0,0,0,0,.19c7.13-1.23,11.24-2.26,16.52-7.56C475.29,164.89,475.13,164.59,474.87,164.8Z" style="fill:#263238"></path><path d="M477.5,172.62c-6,4-9.65,5.59-16.79,6.5a.13.13,0,0,0,0,.26c7.38-.21,11.94-2.2,16.88-6.56C477.93,172.52,477.87,172.37,477.5,172.62Z" style="fill:#263238"></path><rect x="451.33" y="122.9" width="62.7" height="62.7" transform="translate(965.37 308.5) rotate(180)" style="fill:#fff"></rect><rect x="454.4" y="125.97" width="56.56" height="56.56" transform="translate(965.37 308.5) rotate(180)" style="fill:#E27163"></rect><path d="M463.52,139.46a5.33,5.33,0,1,0,4.19-4.19A5.33,5.33,0,0,0,463.52,139.46Z" style="opacity:0.1"></path><polygon points="470.09 167.85 510.97 167.85 490.53 144.93 470.09 167.85" style="opacity:0.1"></polygon><polygon points="454.4 167.85 488.15 167.85 471.28 152.92 454.4 167.85" style="fill:#E27163"></polygon><g style="opacity:0.2"><polygon points="454.4 167.85 488.15 167.85 471.28 152.92 454.4 167.85"></polygon></g><rect x="454.4" y="167.85" width="56.56" height="14.68" style="fill:#E27163"></rect><rect x="454.4" y="167.85" width="56.56" height="14.68" style="opacity:0.2"></rect><path d="M431.37,164.88s5.34-7.14,8.37-9.77,17.95-8.22,19.34-5.07c1.8,4.07-6.17,9-10.39,10.9,0,0,4.17,9.41-.78,14.19S431.37,164.88,431.37,164.88Z" style="fill:#d3766a"></path><path d="M459.21,151.32c-1,4.89-6.74,7-10.69,9.19a.41.41,0,0,0-.1.67c1.48,4.06,2.39,10.22-.23,13.95-.08.11.07.24.16.14,3.36-3.63,2.95-9.75,1-14.09,4.09-2.15,9.71-4.55,9.87-9.85A0,0,0,0,0,459.21,151.32Z" style="fill:#263238"></path><path d="M430.59,159.65l-.19,36s-21.83-.62-31.71-4.1-28-29.25-33.3-41-2.47-22.06,11.52-10.94,29.78,24.52,30.25,24.78S430.59,159.65,430.59,159.65Z" style="fill:#E27163"></path><path d="M373.37,138.1a.84.84,0,1,1-.84-.84A.84.84,0,0,1,373.37,138.1Zm-.84,18.15a.84.84,0,0,0,0,1.68.84.84,0,1,0,0-1.68Zm13.05,0a.84.84,0,1,0,0,1.68.84.84,0,1,0,0-1.68Zm12.3.45a.83.83,0,0,0,.74,1.22.82.82,0,0,0,.51-.17C398.72,157.41,398.3,157.07,397.88,156.7ZM366,146.78a.84.84,0,1,0,.84.84A.84.84,0,0,0,366,146.78Zm13.05,0a.84.84,0,1,0,.83.84A.83.83,0,0,0,379.06,146.78Zm6.52,28.46a.84.84,0,1,0,.84.84A.83.83,0,0,0,385.58,175.24Zm13,0a.84.84,0,1,0,.84.84A.84.84,0,0,0,398.62,175.24Zm13,0a.84.84,0,1,0,0,1.67.84.84,0,1,0,0-1.67Zm13,0a.84.84,0,1,0,.83.84A.83.83,0,0,0,424.71,175.24Zm-45.65-9.47a.84.84,0,1,0,.83.84A.83.83,0,0,0,379.06,165.77Zm13,0a.84.84,0,1,0,.84.84A.84.84,0,0,0,392.1,165.77Zm13,0a.84.84,0,1,0,.84.84A.84.84,0,0,0,405.14,165.77Zm13,0a.84.84,0,1,0,.84.84A.83.83,0,0,0,418.18,165.77Zm12.21.83a.78.78,0,0,0,.16.49v-1A.84.84,0,0,0,430.39,166.6Zm-5.68,27.63a.83.83,0,0,0-.84.83.87.87,0,0,0,.05.28l1.53.1h0a.79.79,0,0,0,.09-.38A.84.84,0,0,0,424.71,194.23Zm-32.61-9.48a.84.84,0,1,0,.84.84A.85.85,0,0,0,392.1,184.75Zm13,0a.84.84,0,1,0,.84.84A.85.85,0,0,0,405.14,184.75Zm13,0a.84.84,0,1,0,.84.84A.84.84,0,0,0,418.18,184.75Zm12.21.84a1,1,0,0,0,.05.31v-.63A.91.91,0,0,0,430.39,185.59Z" style="fill:#020100;opacity:0.1"></path><path d="M423.36,178.18c0-2.58.12-12.85.36-15.37,0-.07.11-.05.11,0,.25,2.55.34,12.88.33,15.46,0,5.16,0,10.35-.35,15.48,0,.11-.14.12-.15,0C423.29,188.6,423.36,183.37,423.36,178.18Z" style="fill:#263238"></path><path d="M416.32,194.73c-6.23-.61-13.16-1.59-17.63-3.17-9.87-3.48-28-29.26-33.3-41-4.5-10-3.12-19,6.1-14.49Z" style="opacity:0.1"></path><path d="M387.28,178.14l3.87,28.06-10.9.05-3.11-5.69-4.35,5.7c-14.06,0-32.1-.09-38.66-.6,0,0,9.63-52.34,21.92-65.49,6.14-6.58,13.3-6,17.83-1.37,1.15,1.18,14.8,19.49,16.2,26.46C391.3,171.41,387.28,178.14,387.28,178.14Z" style="fill:#E27163"></path><path d="M334.13,205.66c6.56.51,24.61.61,38.66.6l4.35-5.69,3.1,5.68,10.92-.05-3.88-28.06s4-6.73,2.8-12.88c-.77-3.81-5.22-11-9.27-17-.06-.07-.11-.16-.17-.23-3.27-4.8-6.24-8.7-6.76-9.22-4.36-4.49-11.13-5.17-17.1.62h0a1.14,1.14,0,0,0-.16.15c-.19.18-.38.38-.57.58a33.64,33.64,0,0,0-4.82,7.27l-.21.4a136.58,136.58,0,0,0-8.11,21.48c0,.1-.06.19-.09.28C337.51,187.3,334.13,205.66,334.13,205.66Z" style="fill:#E27163"></path><path d="M360.33,138.1a.84.84,0,1,1-.84-.84A.85.85,0,0,1,360.33,138.1Zm11.85-.76a.84.84,0,1,0,1.17.95A11.57,11.57,0,0,0,372.18,137.34Zm-25,19.31c-.15.41-.31.82-.47,1.24a.85.85,0,0,0,.59-.8A.93.93,0,0,0,347.17,156.65Zm12.32-.4a.84.84,0,1,0,.84.84A.84.84,0,0,0,359.49,156.25Zm13,0a.84.84,0,0,0,0,1.68.84.84,0,1,0,0-1.68Zm13.46.11a.81.81,0,0,0-.41-.11.84.84,0,0,0-.84.84.84.84,0,0,0,1.67,0h0Zm-33-9.58a.84.84,0,1,0,.84.84A.84.84,0,0,0,353,146.78Zm13,0a.84.84,0,1,0,.84.84A.84.84,0,0,0,366,146.78Zm13.05,0a.84.84,0,1,0,.83.84A.83.83,0,0,0,379.06,146.78Zm-32.61,28.46a.84.84,0,1,0,.84.84A.84.84,0,0,0,346.45,175.24Zm13,0a.84.84,0,1,0,.84.84A.84.84,0,0,0,359.49,175.24Zm13,0a.84.84,0,1,0,.84.84A.83.83,0,0,0,372.53,175.24Zm13.05,0a.84.84,0,1,0,.84.84A.83.83,0,0,0,385.58,175.24ZM353,165.77a.84.84,0,1,0,.84.84A.84.84,0,0,0,353,165.77Zm13,0a.84.84,0,1,0,0,1.67.84.84,0,1,0,0-1.67Zm13.05,0a.84.84,0,1,0,.83.84A.83.83,0,0,0,379.06,165.77Zm-32.61,28.45a.84.84,0,1,0,.84.84A.85.85,0,0,0,346.45,194.22Zm13,0a.84.84,0,1,0,.84.84A.85.85,0,0,0,359.49,194.22Zm13,0a.84.84,0,1,0,.84.84A.84.84,0,0,0,372.53,194.22Zm13.05,0a.84.84,0,1,0,.84.84A.84.84,0,0,0,385.58,194.22Zm-45.65-9.47a.84.84,0,1,0,.84.84A.84.84,0,0,0,339.93,184.75Zm13,0a.84.84,0,1,0,.84.84A.85.85,0,0,0,353,184.75Zm13,0a.84.84,0,1,0,0,1.68.84.84,0,1,0,0-1.68Zm13.05,0a.84.84,0,1,0,0,1.68.84.84,0,0,0,0-1.68Zm-39.13,19a.84.84,0,1,0,.84.84A.84.84,0,0,0,339.93,203.74Zm13,0a.84.84,0,1,0,.84.84A.85.85,0,0,0,353,203.74Zm13,0a.84.84,0,1,0,.84.84A.85.85,0,0,0,366,203.74Zm13.05,0-.17,0,.76,1.41a.82.82,0,0,0,.25-.59A.85.85,0,0,0,379.06,203.74Z" style="fill:#020100;opacity:0.1"></path><path d="M389.31,193.08c-.49-2.56-.86-4.57-1.26-7.15s-.86-5.15-1.23-7.73l0-.17.11-.16a19.59,19.59,0,0,0,2.63-6.49,14.07,14.07,0,0,0,.33-3.48,11.76,11.76,0,0,0-.53-3.44,41.2,41.2,0,0,0-2.81-6.58c-1.11-2.13-2-3.92-3.26-6-.21-.32-.08-.4.11-.14,1.24,1.69,2.6,4,3.66,5.85a36,36,0,0,1,3.17,6.59,12.16,12.16,0,0,1,.64,3.68,14.86,14.86,0,0,1-.32,3.71,19.22,19.22,0,0,1-2.86,6.83l.08-.34c.34,2.59.62,5.18.91,7.78.27,2.33.58,4.84.78,7.18C389.45,193.29,389.47,194,389.31,193.08Z" style="fill:#263238"></path><path d="M385.5,153.83a12.07,12.07,0,0,1,1.25,2.42,10.93,10.93,0,0,1,.41,1.3,5.14,5.14,0,0,1,.2,1.36c-.4-.83-.76-1.64-1.09-2.48A15,15,0,0,1,385.5,153.83Z" style="fill:#263238"></path><path d="M370.58,177.34a50.78,50.78,0,0,1,7.4.17c1.22.13,2.43.33,3.63.54.61.11,1.21.2,1.81.28a7.74,7.74,0,0,0,1.92.09,0,0,0,0,1,0,.09,13.82,13.82,0,0,1-1.8.22,13,13,0,0,1-1.76-.08c-1.24-.13-2.47-.31-3.71-.45-2.49-.28-5-.56-7.5-.65A.11.11,0,0,1,370.58,177.34Z" style="fill:#263238"></path><path d="M364.87,180.35a50.39,50.39,0,0,1,6-1.14c1-.14,2-.21,3-.25l1.46,0c.53,0,1.07.06,1.61,0,0,0,.06.09,0,.09-.51,0-1,.14-1.51.2l-1.51.17-3,.36c-2,.21-4,.45-6.05.74A.09.09,0,0,1,364.87,180.35Z" style="fill:#263238"></path><path d="M354.6,142.28c-10.5,14.2-30.54,47.82-23.81,55.22,11,12.18,37.59,22.68,45.84,24.68,3.6.86,15.64-25.13,12.24-27.16-4.08-2.45-32.57-11.16-32.49-13.59.05-1.37,3-12.9,5.46-27.69C364.67,136.58,359.6,135.51,354.6,142.28Z" style="fill:#d3766a"></path><path d="M375.9,193.53s10.73-3.44,17.86-5.36c4-1.07,10.95-2.29,14.23-1.74,4.9.82,24.89,7.38,23.41,12.27-1.35,4.41-17.81-3.41-17.81-3.41s17.31,6.43,14.71,11.45-20-6.29-20-6.29,17.63,7,14.13,11.76c-2.65,3.59-19-5.77-19-5.77s15.11,6.13,12.55,9.94c-2.83,4.21-18.47-3.48-18.47-3.48-8.14,8.6-15.49,9.71-20.86,9.28C375.35,222.07,375.9,193.53,375.9,193.53Z" style="fill:#d3766a"></path><path d="M407.75,192.69c2.06.68,4.15,1.35,6.14,2.21s4,1.8,5.86,2.84a37.12,37.12,0,0,1,7,4.77c-4.06-3-11.14-6.21-13.14-7.07s-3.93-1.82-5.92-2.68C407.66,192.74,407.7,192.67,407.75,192.69Z" style="fill:#263238"></path><path d="M404.5,199.82a68.82,68.82,0,0,1,15.06,6.59c.19.1.08.16-.12.07-2.5-1.16-12.73-5.41-15-6.6A0,0,0,1,1,404.5,199.82Z" style="fill:#263238"></path><path d="M400.62,205.45a47.35,47.35,0,0,1,10.94,5c.18.1,0,.17-.17.08-3.55-1.66-6.05-2.66-10.82-4.95C400.5,205.56,400.53,205.42,400.62,205.45Z" style="fill:#263238"></path><path d="M379.34,190.68,364,225s-29.45-18.46-34.79-28.51c-4.79-9,18.21-45.8,23.54-53s10.64-8.4,10.05,3.59-5.55,33.74-5.55,34.08S379.34,190.68,379.34,190.68Z" style="fill:#E27163"></path><path d="M360.32,138.2a.84.84,0,0,1-1.65.07A2.62,2.62,0,0,1,360.32,138.2Zm-13.87,18.05a.84.84,0,1,0,.84.84A.84.84,0,0,0,346.45,156.25Zm13,0a.84.84,0,1,0,.84.84A.84.84,0,0,0,359.49,156.25ZM353,146.78a.84.84,0,1,0,.84.84A.84.84,0,0,0,353,146.78ZM334.09,175.6c-.19.43-.4.87-.6,1.3a.83.83,0,0,0,.6-1.3Zm12.36-.36a.84.84,0,1,0,.84.84A.84.84,0,0,0,346.45,175.24Zm-6.52-9.47a.84.84,0,1,0,.84.84A.83.83,0,0,0,339.93,165.77Zm13,0a.84.84,0,1,0,.84.84A.84.84,0,0,0,353,165.77Zm-19.56,28.45a.84.84,0,0,0,0,1.68.84.84,0,0,0,0-1.68Zm13,0a.84.84,0,1,0,.84.84A.85.85,0,0,0,346.45,194.22Zm13,0a.84.84,0,1,0,.84.84A.85.85,0,0,0,359.49,194.22Zm13,0a.84.84,0,1,0,.84.84A.84.84,0,0,0,372.53,194.22Zm-32.6-9.47a.84.84,0,1,0,.84.84A.84.84,0,0,0,339.93,184.75Zm13,0a.84.84,0,1,0,.84.84A.85.85,0,0,0,353,184.75Zm13.86.69-1.28-.54a.84.84,0,0,0,.46,1.53.85.85,0,0,0,.84-.84A.41.41,0,0,0,366.83,185.44Zm-7.34,27.77a.84.84,0,1,0,.84.84A.85.85,0,0,0,359.49,213.21Zm-19.56-9.47a.84.84,0,1,0,.84.84A.84.84,0,0,0,339.93,203.74Zm13,0a.84.84,0,1,0,.84.84A.85.85,0,0,0,353,203.74Zm13,0a.84.84,0,1,0,.84.84A.85.85,0,0,0,366,203.74Z" style="fill:#020100;opacity:0.1"></path><path d="M365,204c1.12-2.6,5.7-12.89,7.07-15.31,0-.07.14,0,.12.07-.83,2.69-5.21,13.15-6.33,15.74-2.25,5.19-4.45,10.45-7.1,15.44a.1.1,0,0,1-.18-.07C360.43,214.52,362.77,209.28,365,204Z" style="fill:#263238"></path><path d="M359.64,167.87c.86-4.56,1.63-9.14,2.41-13.72a.08.08,0,0,1,.15,0c-.21,2.59-.52,5.16-.88,7.72.42-1.32.8-2.66,1.16-4,0-.1.17-.05.15,0a27.08,27.08,0,0,1-1.49,5.17c-.24,1.56-.49,3.12-.77,4.67-.4,2.27-2.43,12.24-2.73,13.36,3.83,1.31,7.23,2.94,11,4.48q2.76,1.13,5.49,2.31a48.38,48.38,0,0,1,5.58,2.42c.1.06-.23.53-.35.77s-.23.09-.19,0,.07-.24.09-.33c-.91-.24-4.55-1.78-5.49-2.16l-5.5-2.26c-3.73-1.53-11.46-4.71-11.46-4.77C356.89,180.53,359.2,170.18,359.64,167.87Z" style="fill:#263238"></path><path d="M362.72,136.87c.12,1.11,4.42,8.7,9.36,9,1.61.12,2.62-8.64,2.62-8.64l.22-.63,3.11-8.8-9.82-8.1-1.43-1.08s-.69,2.46-1.52,5.54l-.12.44c-.05.17-.1.34-.14.5-.13.46-.26.93-.38,1.4s-.18.7-.27,1.08l-.27,1.12A61,61,0,0,0,362.72,136.87Z" style="fill:#d3766a"></path><path d="M365.26,124.21a18.71,18.71,0,0,0,9.66,12.44l3.11-8.8-9.82-8.1-1.43-1.08S366.09,121.13,365.26,124.21Z" style="fill:#263238"></path><path d="M391.55,113c2.91,16.13-6.43,19.69-9.91,20.32-3.16.56-14,2.09-18.54-13.66s2-22.2,9.17-23.87S388.64,96.87,391.55,113Z" style="fill:#d3766a"></path><path d="M388.77,110.63a8.47,8.47,0,0,1-1.13-.06,1.76,1.76,0,0,1-1.14-.28.56.56,0,0,1-.11-.7,1.44,1.44,0,0,1,1.35-.56,2.16,2.16,0,0,1,1.44.54A.62.62,0,0,1,388.77,110.63Z" style="fill:#263238"></path><path d="M377.66,112.35c.37-.11.7-.27,1.06-.41a1.86,1.86,0,0,0,1-.61.59.59,0,0,0-.11-.71,1.46,1.46,0,0,0-1.46-.11,2.11,2.11,0,0,0-1.2.95A.62.62,0,0,0,377.66,112.35Z" style="fill:#263238"></path><path d="M380.85,115.92s-.07.06-.06.11c.23,1.09.32,2.38-.61,2.93,0,0,0,.07,0,.05C381.38,118.62,381.25,116.91,380.85,115.92Z" style="fill:#263238"></path><path d="M379.66,115c-1.79.18-1.28,3.75.38,3.58S381.17,114.79,379.66,115Z" style="fill:#263238"></path><path d="M379,115.23c-.28.25-.54.65-.91.74s-.81-.22-1.14-.54c0,0-.06,0-.06,0,.09.68.45,1.35,1.2,1.35s1.07-.68,1.15-1.39C379.24,115.31,379.1,115.14,379,115.23Z" style="fill:#263238"></path><path d="M387,114.81s.1,0,.1.09c.11,1.11.43,2.36,1.48,2.6,0,0,0,.06,0,.06C387.3,117.55,386.89,115.88,387,114.81Z" style="fill:#263238"></path><path d="M387.8,113.53c1.76-.38,2.37,3.17.74,3.52S386.32,113.84,387.8,113.53Z" style="fill:#263238"></path><path d="M388.58,113.63c.31.14.65.43,1,.4s.61-.48.79-.89c0,0,.06,0,.07,0,.13.68,0,1.42-.6,1.66s-1.11-.28-1.39-.93C388.39,113.78,388.45,113.57,388.58,113.63Z" style="fill:#263238"></path><path d="M382,125c.29.23.59.56,1,.56a3.11,3.11,0,0,0,1.17-.39,0,0,0,0,1,.05,0,1.52,1.52,0,0,1-1.35.74,1.17,1.17,0,0,1-1-.9A.06.06,0,0,1,382,125Z" style="fill:#263238"></path><path d="M386,120.31s.48,1.61.6,2.39c0,.07-.17.14-.43.19h0a3.75,3.75,0,0,1-3.8-.83c-.07-.07,0-.16.1-.13a5.57,5.57,0,0,0,3.52.45c0-.22-.92-2.73-.8-2.76a6.92,6.92,0,0,1,1.83.13c-.9-3.39-2.34-6.61-3.19-10a.1.1,0,0,1,.19-.08,56.45,56.45,0,0,1,3.9,10.62C388,120.73,386.34,120.39,386,120.31Z" style="fill:#263238"></path><path d="M364.43,120.13c3.07,0,3-7,3-7s12.65-3.77,12.46-14.42a17.93,17.93,0,0,0,10.16,8.64s-1.86-11.47-11.27-12.59c0,0-11.84-2.75-17.12,7S362.36,120.12,364.43,120.13Z" style="fill:#263238"></path><path d="M379.84,97.91a11.59,11.59,0,0,1,0,4.87,12,12,0,0,1-1.92,4.54,9,9,0,0,1-.77,1l-.39.48-.45.43c-.31.28-.6.57-.92.83s-.66.48-1,.72l-.51.34-.54.29-1.09.58c-.75.31-1.52.58-2.28.84.7-.41,1.43-.75,2.12-1.16l1-.65.5-.33.46-.37.93-.75c.29-.27.56-.56.84-.83l.41-.42.37-.46a9.14,9.14,0,0,0,.71-.93,13.92,13.92,0,0,0,2-4.26,15.35,15.35,0,0,0,.45-2.34A14.74,14.74,0,0,0,379.84,97.91Z" style="fill:#263238"></path><path d="M364.14,125.62a3.26,3.26,0,0,0,.77.13,2.7,2.7,0,0,0,.77,0,2.27,2.27,0,0,0,.92-.39,2.93,2.93,0,0,0,.57-.53,3.14,3.14,0,0,0,.53-1l-1.3-4.28s-4-4.76-6.23-3.28S361.33,124.87,364.14,125.62Z" style="fill:#d3766a"></path><path d="M361.18,118.26s0,.06,0,.08c2,.59,3.13,2.26,4,4a1.52,1.52,0,0,0-2.31-.21.06.06,0,0,0,.06.1,1.69,1.69,0,0,1,1.92.42,8.12,8.12,0,0,1,1,1.43c.11.16.41,0,.32-.15v0C366,121.49,363.81,118.27,361.18,118.26Z" style="fill:#263238"></path><path d="M364.3,124.92a.76.76,0,1,0,.51-1A.77.77,0,0,0,364.3,124.92Z" style="fill:#fff"></path><path d="M362.64,123.92a.55.55,0,0,0,.67.36.54.54,0,0,0-.31-1A.54.54,0,0,0,362.64,123.92Z" style="fill:#fff"></path></g></svg>